<?xml version="1.0" encoding="UTF-8"?>
<svg id="Laag_1" data-name="Laag 1" xmlns="http://www.w3.org/2000/svg" viewBox="0 0 343.91 121.14">
  <defs>
    <style>
      .cls-1 {
        fill: #333e46;
      }

      .cls-1, .cls-2, .cls-3, .cls-4, .cls-5, .cls-6 {
        stroke-width: 0px;
      }

      .cls-2 {
        fill: #df7d65;
      }

      .cls-3 {
        fill: #b0d3bb;
      }

      .cls-4 {
        fill: #ebf1f2;
      }

      .cls-5 {
        fill: #323f48;
      }

      .cls-6 {
        fill: #5e93a3;
      }
    </style>
  </defs>
  <path class="cls-2" d="M197.12,43.81c3.51,5.53,9.69,9.2,16.72,9.2h0c10.93,0,19.79-8.86,19.79-19.79l-36.52,10.59Z"/>
  <path class="cls-4" d="M233.64,33.75v-11.49c0-10.93-8.86-19.79-19.79-19.79h0c-10.93,0-19.79,8.86-19.79,19.79v19.76s39.58-8.27,39.58-8.27Z"/>
  <path class="cls-1" d="M213.85,55.39c-12.27,0-22.26-9.99-22.26-22.26v-10.87c0-12.27,9.99-22.26,22.26-22.26s22.26,9.99,22.26,22.26v10.87c0,12.27-9.99,22.26-22.26,22.26ZM213.85,4.94c-9.55,0-17.32,7.77-17.32,17.32v10.87c0,9.55,7.77,17.32,17.32,17.32s17.32-7.77,17.32-17.32v-10.87c0-9.55-7.77-17.32-17.32-17.32Z"/>
  <path class="cls-4" d="M334.76,14.32c-.51-1.15-1.12-2.25-1.83-3.28-3.57-5.18-9.54-8.57-16.31-8.57h0c-10.93,0-19.79,8.86-19.79,19.79l37.93-7.94Z"/>
  <path class="cls-3" d="M296.84,21.96v11.26c0,10.93,8.86,19.79,19.79,19.79h0c10.93,0,19.79-8.86,19.79-19.79V13.69s-39.58,8.27-39.58,8.27Z"/>
  <path class="cls-6" d="M246.35,30.62v2.6c0,10.93,8.86,19.79,19.79,19.79h0c10.93,0,19.79-8.86,19.79-19.79v-10.87s-39.58,8.27-39.58,8.27Z"/>
  <path class="cls-4" d="M285.93,24.86v-2.6c0-10.93-8.86-19.79-19.79-19.79h0c-10.93,0-19.79,8.86-19.79,19.79v10.87s39.58-8.27,39.58-8.27Z"/>
  <path class="cls-1" d="M213.77,0c-12.27,0-22.26,9.99-22.26,22.26v10.87c0,12.27,9.98,22.26,22.26,22.26s22.26-9.99,22.26-22.26v-10.87c0-12.27-9.99-22.26-22.26-22.26ZM196.44,22.26c0-9.55,7.77-17.32,17.32-17.32s17.32,7.77,17.32,17.32v10.66l-33.4,6.64c-.8-1.99-1.25-4.15-1.25-6.42v-10.87ZM213.77,50.46c-5.41,0-10.25-2.5-13.43-6.4l30.02-5.97c-2.14,7.14-8.76,12.36-16.59,12.36Z"/>
  <path class="cls-1" d="M266.14,0c-12.27,0-22.26,9.99-22.26,22.26v10.87c0,12.27,9.99,22.26,22.26,22.26s22.26-9.99,22.26-22.26v-10.87c0-12.27-9.99-22.26-22.26-22.26ZM266.14,4.94c9.55,0,17.32,7.77,17.32,17.32v.21l-34.65,6.91v-7.12c0-9.55,7.77-17.32,17.32-17.32ZM266.14,50.46c-9.12,0-16.6-7.09-17.26-16.06l34.58-6.9v5.63c0,9.55-7.77,17.32-17.32,17.32Z"/>
  <path class="cls-1" d="M316.63,0c-12.27,0-22.26,9.99-22.26,22.26v10.87c0,12.27,9.99,22.26,22.26,22.26s22.26-9.99,22.26-22.26v-10.87c0-12.27-9.99-22.26-22.26-22.26ZM316.63,4.94c6.12,0,11.5,3.2,14.59,8.01l-31.63,6.31c1.43-8.12,8.52-14.32,17.05-14.32ZM333.95,33.13c0,9.55-7.77,17.32-17.32,17.32s-17.32-7.77-17.32-17.32v-8.79l33.98-6.78c.42,1.49.66,3.06.66,4.69v10.87Z"/>
  <g>
    <path class="cls-5" d="M41.67,2.49c.22,0,.37.15.37.37v51.37c0,.22-.15.37-.37.37h-10.88c-.22,0-.44-.15-.59-.37L7.77,9.75c-.15-.3-.74-.3-.74.15v44.34c0,.22-.15.37-.37.37H.37c-.22,0-.37-.15-.37-.37V2.86c0-.22.15-.37.37-.37h10.95c.22,0,.37.07.52.37l22.43,44.41c.22.44.74.37.74-.07V2.86c0-.22.15-.37.37-.37h6.29Z"/>
    <path class="cls-5" d="M49.59,2.86c0-.22.15-.37.37-.37h35.6c.22,0,.37.15.37.37v5.55c0,.22-.15.37-.37.37h-28.57c-.22,0-.37.15-.37.37v15.1c0,.22.15.37.37.37h25.54c.22,0,.37.15.37.37v5.55c0,.22-.15.37-.37.37h-25.54c-.22,0-.37.15-.37.37v16.65c0,.22.15.37.37.37h28.57c.22,0,.37.15.37.37v5.55c0,.22-.15.37-.37.37h-35.6c-.22,0-.37-.15-.37-.37V2.86Z"/>
    <path class="cls-5" d="M139.75,47.2c.07.44.67.44.74,0l8.14-44.34c.07-.22.15-.37.37-.37h6.74c.22,0,.52.07.44.37l-10.21,51.37c-.07.22-.22.37-.44.37h-11.25c-.22,0-.3-.15-.37-.37l-9.55-44.26c-.07-.37-.67-.37-.74,0l-9.55,44.26c-.07.22-.15.37-.37.37h-11.25c-.22,0-.37-.15-.44-.37L91.79,2.86c-.07-.3.22-.37.44-.37h6.74c.22,0,.3.15.37.37l8.14,44.34c.07.44.67.44.74,0L117.4,2.86c.07-.22.15-.37.37-.37h12.44c.22,0,.3.15.37.37l9.18,44.34Z"/>
    <path class="cls-5" d="M0,68.66c0-.22.15-.37.37-.37h21.61c8.14,0,15.1,7.03,15.1,15.84s-6.96,15.54-15.1,15.54H7.4c-.22,0-.37.15-.37.37v19.99c0,.22-.15.37-.37.37H.37c-.22,0-.37-.15-.37-.37v-51.37ZM7.4,74.58c-.22,0-.37.15-.37.37v18.06c0,.22.15.37.37.37h13.69c4.66,0,8.96-4.15,8.96-9.25s-4.29-9.55-8.96-9.55H7.4Z"/>
    <path class="cls-5" d="M60.84,68.29c.22,0,.37.15.44.37l17.25,51.37c.07.22-.15.37-.37.37h-6.96c-.22,0-.3-.15-.37-.37l-3.4-10.58c-.07-.3-.3-.37-.52-.37h-21.47c-.22,0-.37.15-.44.37l-3.48,10.58c-.07.22-.15.37-.37.37h-6.88c-.22,0-.52-.07-.44-.37l17.47-51.37c.07-.22.22-.37.44-.37h9.1ZM64.99,103.15c.22,0,.37-.15.3-.37l-8.66-27.09c-.15-.44-.59-.44-.74,0l-8.73,27.09c-.07.22.07.37.3.37h17.54Z"/>
    <path class="cls-5" d="M88.31,74.88c-.07-.15-.22-.3-.37-.3h-14.29c-.22,0-.37-.15-.37-.37v-5.55c0-.22.15-.37.37-.37h36.34c.22,0,.37.15.37.37v5.55c0,.22-.15.37-.37.37h-14.29c-.22,0-.37.15-.37.37v45.08c0,.22-.15.37-.37.37h-6.29c-.22,0-.37-.15-.37-.37v-45.15Z"/>
    <path class="cls-5" d="M154.34,68.29c.22,0,.37.15.37.37v51.37c0,.22-.15.37-.37.37h-6.29c-.22,0-.37-.15-.37-.37v-22.95c0-.22-.15-.37-.37-.37h-23.46c-.22,0-.37.15-.37.3v23.02c0,.22-.15.37-.37.37h-6.29c-.22,0-.37-.15-.37-.37v-51.37c0-.22.15-.37.37-.37h6.29c.22,0,.37.15.37.37v21.39c0,.22.15.37.37.37h23.46c.22,0,.37-.15.37-.37v-21.39c0-.22.15-.37.37-.37h6.29Z"/>
    <path class="cls-5" d="M209.11,113c.07.44.67.44.74,0l8.14-44.34c.07-.22.15-.37.37-.37h6.74c.22,0,.52.07.44.37l-10.21,51.37c-.07.22-.22.37-.44.37h-11.25c-.22,0-.3-.15-.37-.37l-9.55-44.26c-.07-.37-.67-.37-.74,0l-9.55,44.26c-.07.22-.15.37-.37.37h-11.25c-.22,0-.37-.15-.44-.37l-10.21-51.37c-.07-.3.22-.37.44-.37h6.74c.22,0,.3.15.37.37l8.14,44.34c.07.44.67.44.74,0l9.18-44.34c.07-.22.15-.37.37-.37h12.44c.22,0,.3.15.37.37l9.18,44.34Z"/>
    <path class="cls-5" d="M250.19,68.29c.22,0,.37.15.44.37l17.25,51.37c.07.22-.15.37-.37.37h-6.96c-.22,0-.3-.15-.37-.37l-3.4-10.58c-.07-.3-.3-.37-.52-.37h-21.47c-.22,0-.37.15-.44.37l-3.48,10.58c-.07.22-.15.37-.37.37h-6.88c-.22,0-.52-.07-.44-.37l17.47-51.37c.07-.22.22-.37.44-.37h9.1ZM254.34,103.15c.22,0,.37-.15.3-.37l-8.66-27.09c-.15-.44-.59-.44-.74,0l-8.73,27.09c-.07.22.07.37.3.37h17.54Z"/>
    <path class="cls-5" d="M285.95,97.23c-.22.37-.22.52-.22.74v22.06c0,.22-.15.37-.37.37h-6.29c-.22,0-.37-.15-.37-.37v-22.06c0-.22-.15-.37-.37-.74l-17.47-28.57c-.15-.22,0-.37.22-.37h7.48c.22,0,.44.15.59.37l12.66,21.1c.22.3.52.3.74,0l12.73-21.1c.22-.3.52-.37.74-.37h7.33c.22,0,.37.15.22.37l-17.62,28.57Z"/>
    <path class="cls-5" d="M323.33,73.84c-5.85,0-10.66,3.63-10.66,8.59,0,6.07,6.37,7.03,11.47,7.62,9.7,1.11,19.76,3.41,19.76,15.69,0,7.4-5.4,15.4-19.76,15.4-12.81,0-19.76-7.03-19.76-15.03,0-.22.15-.37.37-.37h6.59c.22,0,.44.22.44.44,0,3.7,4,8.66,12.36,8.66,7.85,0,12.36-4.22,12.36-9.1,0-6.66-5.92-7.99-12.36-8.66-8.29-.89-18.88-3.18-18.88-14.66,0-9.47,9.03-14.88,18.06-14.88s18.58,4.88,18.58,15.03c0,.22-.15.37-.37.37h-6.66c-.22,0-.37-.15-.37-.37,0-4.96-4.59-8.73-11.18-8.73Z"/>
  </g>
</svg>